<?xml version="1.0" encoding="UTF-8" standalone="no"?>
<!-- Created with Inkscape (http://www.inkscape.org/) -->

<svg
   xmlns:dc="http://purl.org/dc/elements/1.1/"
   xmlns:cc="http://creativecommons.org/ns#"
   xmlns:rdf="http://www.w3.org/1999/02/22-rdf-syntax-ns#"
   xmlns:svg="http://www.w3.org/2000/svg"
   xmlns="http://www.w3.org/2000/svg"
   xmlns:xlink="http://www.w3.org/1999/xlink"
   version="1.1"
   width="512"
   height="512"
   id="svg2">
  <defs
     id="defs4">
    <linearGradient
       id="linearGradient4003">
      <stop
         id="stop4005"
         style="stop-color:#88889c;stop-opacity:1"
         offset="0" />
      <stop
         id="stop4007"
         style="stop-color:#7d7dae;stop-opacity:1"
         offset="1" />
    </linearGradient>
    <linearGradient
       id="linearGradient3993">
      <stop
         id="stop3995"
         style="stop-color:#00356b;stop-opacity:1"
         offset="0" />
      <stop
         id="stop3997"
         style="stop-color:#007afb;stop-opacity:1"
         offset="1" />
    </linearGradient>
    <linearGradient
       id="linearGradient3985">
      <stop
         id="stop3987"
         style="stop-color:#90c6ff;stop-opacity:1"
         offset="0" />
      <stop
         id="stop3989"
         style="stop-color:#1184ff;stop-opacity:1"
         offset="1" />
    </linearGradient>
    <style
       type="text/css"
       id="style3884" />
    <radialGradient
       cx="352"
       cy="304"
       r="16"
       fx="352"
       fy="304"
       id="radialGradient3991"
       xlink:href="#linearGradient3985"
       gradientUnits="userSpaceOnUse"
       spreadMethod="pad" />
    <linearGradient
       x1="336"
       y1="304"
       x2="368"
       y2="304"
       id="linearGradient4001"
       xlink:href="#linearGradient3993"
       gradientUnits="userSpaceOnUse" />
    <linearGradient
       x1="358.39999"
       y1="248"
       x2="371.19998"
       y2="248"
       id="linearGradient4009"
       xlink:href="#linearGradient4003"
       gradientUnits="userSpaceOnUse" />
  </defs>
  <metadata
     id="metadata7">
    <rdf:RDF>
      <cc:Work
         rdf:about="">
        <dc:format>image/svg+xml</dc:format>
        <dc:type
           rdf:resource="http://purl.org/dc/dcmitype/StillImage" />
        <dc:title></dc:title>
      </cc:Work>
    </rdf:RDF>
  </metadata>
  <g
     transform="translate(0,-540.36222)"
     id="layer1">
    <rect
       width="368.63998"
       height="431.99997"
       ry="0"
       x="71.68"
       y="572.36224"
       id="rect2985"
       style="fill:#7c7c7c;fill-opacity:1" />
    <rect
       width="253.43997"
       height="367.99997"
       ry="0"
       x="129.28001"
       y="604.36224"
       id="rect2985-6"
       style="fill:#a2a2a2;fill-opacity:1" />
    <rect
       width="368.63998"
       height="8.0000248"
       x="71.68"
       y="580.36224"
       id="rect3799"
       style="fill:#8dff45;fill-opacity:1" />
    <g
       transform="matrix(2,0,0,2,-89.600005,-620.36226)"
       id="g3942">
      <rect
         width="64"
         height="64"
         ry="4.6829314"
         x="140.8"
         y="620.36224"
         id="rect3914"
         style="fill:#1b29a6;fill-opacity:1" />
      <text
         x="160"
         y="660.36224"
         id="text3918"
         xml:space="preserve"
         style="font-size:40px;font-style:normal;font-weight:normal;line-height:125%;letter-spacing:0px;word-spacing:0px;fill:#ffffff;fill-opacity:1;stroke:none;font-family:Sans"><tspan
           x="160"
           y="660.36224"
           id="tspan3920">P</tspan></text>
      <rect
         width="57.600006"
         height="9.9999762"
         ry="0.99999762"
         x="144"
         y="662.36224"
         id="rect3922"
         style="fill:#ffffff;fill-opacity:1" />
      <text
         x="145.60001"
         y="670.36224"
         id="text3924"
         xml:space="preserve"
         style="font-size:9px;font-style:normal;font-weight:normal;line-height:125%;letter-spacing:0px;word-spacing:0px;fill:#000000;fill-opacity:1;stroke:none;font-family:Sans"><tspan
           x="145.60001"
           y="670.36224"
           id="tspan3926">Parkscheine</tspan></text>
      <path
         d="m 172.8,151.68729 c 0,0 0,0 0,0 -1.50439,-2.60609 -5.15264,-8.92504 -6.65738,-11.53093 0,0 0,0 0,0 3.00914,2e-4 10.30563,2e-4 13.31477,0 0,0 0,0 0,0 -1.50474,2.60589 -5.15299,8.92484 -6.65739,11.53093 z"
         transform="matrix(1.0342188,0,0,0.78050961,-5.9130112,563.96884)"
         id="path3932"
         style="fill:#ffffff;fill-opacity:1" />
    </g>
    <rect
       width="102.4"
       height="48"
       x="204.8"
       y="224"
       transform="translate(0,540.36222)"
       id="rect3951"
       style="fill:#002f00;fill-opacity:1" />
    <text
       x="230.39999"
       y="780.36224"
       id="text3953"
       xml:space="preserve"
       style="font-size:10px;font-style:normal;font-weight:normal;line-height:125%;letter-spacing:0px;word-spacing:0px;fill:#00ff00;fill-opacity:1;stroke:none;font-family:Sans"><tspan
         x="230.39999"
         y="780.36224"
         id="tspan3955">Ticket....</tspan></text>
    <rect
       width="12.8"
       height="48"
       x="358.39999"
       y="224"
       transform="translate(0,540.36222)"
       id="rect3959"
       style="fill:url(#linearGradient4009);fill-opacity:1" />
    <rect
       width="7.9999876"
       height="42"
       x="360.79999"
       y="227"
       transform="translate(0,540.36222)"
       id="rect3957"
       style="fill:#000000;fill-opacity:1" />
    <rect
       width="102.4"
       height="48"
       x="204.8"
       y="336"
       transform="translate(0,540.36222)"
       id="rect3961"
       style="fill:#292929;fill-opacity:1" />
    <path
       d="m 368,304.00003 a 16,16 0 1 1 0,-3e-5 l -16,0 z"
       transform="translate(0,540.36222)"
       id="path3965"
       style="fill:url(#linearGradient4001);fill-opacity:1" />
    <path
       d="m 368,304.00003 a 16,16 0 1 1 0,-3e-5 l -16,0 z"
       transform="matrix(0.8,0,0,0.8,70.4,601.16222)"
       id="path3965-5"
       style="fill:url(#radialGradient3991);fill-opacity:1" />
  </g>
</svg>
