<?xml version="1.0" encoding="UTF-8"?>
<!DOCTYPE svg PUBLIC "-//W3C//DTD SVG 1.1//EN" "http://www.w3.org/Graphics/SVG/1.1/DTD/svg11.dtd">
<!-- Creator: CorelDRAW X6 -->
<svg xmlns="http://www.w3.org/2000/svg" xml:space="preserve" width="6.2cm" height="7.4cm" version="1.1" style="shape-rendering:geometricPrecision; text-rendering:geometricPrecision; image-rendering:optimizeQuality; fill-rule:evenodd; clip-rule:evenodd"
viewBox="0 0 6200 7400"
 xmlns:xlink="http://www.w3.org/1999/xlink">
 <defs>
  <style type="text/css">
   <![CDATA[
    .fil0 {fill:#1B29A6}
    .fil1 {fill:white}
    .fil2 {fill:black;fill-rule:nonzero}
    .fil3 {fill:white;fill-rule:nonzero}
   ]]>
  </style>
 </defs>
 <g id="Слой_x0020_1">
  <metadata id="CorelCorpID_0Corel-Layer"/>
  <g id="_555148280">
   <path class="fil0" d="M102 770l0 5893c0,84 37,146 77,194 35,41 103,94 177,94l5452 0c127,0 254,-147 254,-288l0 -5893c0,-141 -127,-288 -254,-288l-5452 0c-131,0 -254,154 -254,288z"/>
   <polygon class="fil1" points="697,4695 5526,4695 5526,5740 697,5740 "/>
   <polygon class="fil1" points="4794,6679 4431,6268 4067,5856 4794,5856 5521,5856 5158,6268 "/>
   <path class="fil2" d="M1045 5496l0 -607 211 0c37,0 65,2 85,6 27,5 50,15 69,28 18,14 33,34 45,59 11,25 16,52 16,82 0,52 -15,95 -45,131 -30,36 -85,53 -164,53l-143 0 0 248 -74 0zm74 -319l144 0c48,0 82,-9 102,-29 20,-19 30,-46 30,-81 0,-25 -6,-47 -18,-65 -11,-18 -27,-30 -46,-36 -13,-4 -36,-5 -69,-5l-143 0 0 216zm701 264c-25,23 -50,40 -73,49 -24,10 -49,15 -76,15 -44,0 -78,-12 -102,-35 -24,-24 -36,-54 -36,-90 0,-22 5,-41 13,-59 10,-18 21,-32 36,-43 15,-11 31,-19 49,-24 14,-4 34,-8 61,-11 56,-7 97,-16 123,-26 0,-10 0,-17 0,-19 0,-30 -6,-52 -19,-64 -18,-17 -44,-25 -79,-25 -32,0 -56,6 -71,18 -16,12 -27,34 -34,66l-67 -11c6,-31 16,-56 30,-75 14,-19 34,-34 61,-45 26,-10 57,-15 92,-15 34,0 62,4 84,13 21,9 37,20 48,33 10,14 17,31 21,51 2,13 3,36 3,69l0 99c0,69 2,112 5,131 2,18 8,36 16,53l-71 0c-7,-16 -12,-34 -14,-55zm-5 -165c-25,11 -62,20 -112,27 -28,5 -48,10 -60,15 -12,6 -21,14 -27,24 -7,11 -10,23 -10,36 0,19 7,36 21,49 14,13 34,20 61,20 26,0 50,-7 70,-19 21,-13 36,-30 46,-51 7,-17 11,-42 11,-74l0 -27zm174 220l0 -440 61 0 0 68c16,-32 31,-52 44,-62 13,-10 28,-15 44,-15 23,0 47,8 71,23l-25 69c-16,-10 -33,-15 -50,-15 -15,0 -28,5 -40,15 -12,9 -20,23 -25,40 -8,27 -12,56 -12,87l0 230 -68 0zm260 0l0 -607 69 0 0 346 162 -179 89 0 -155 163 170 277 -84 0 -135 -225 -47 50 0 175 -69 0zm362 -132l68 -11c4,29 15,52 32,67 17,16 42,24 73,24 32,0 55,-7 70,-21 15,-14 23,-30 23,-49 0,-17 -7,-30 -20,-39 -10,-7 -33,-15 -71,-26 -50,-13 -84,-25 -104,-35 -19,-10 -34,-24 -44,-42 -10,-18 -15,-37 -15,-59 0,-19 4,-37 12,-54 9,-17 20,-31 34,-42 11,-8 25,-15 44,-21 18,-6 38,-9 59,-9 31,0 59,5 83,15 24,10 42,23 53,40 11,17 19,40 24,69l-67 10c-3,-23 -12,-41 -27,-54 -14,-13 -35,-19 -61,-19 -32,0 -54,6 -68,17 -13,11 -20,24 -20,39 0,10 3,19 9,27 5,7 14,14 26,19 7,3 27,9 60,19 49,14 82,26 102,35 19,9 34,22 45,39 11,17 16,38 16,63 0,25 -6,48 -20,70 -13,22 -32,39 -57,51 -26,12 -54,18 -86,18 -52,0 -92,-12 -120,-35 -27,-24 -45,-59 -53,-106zm681 -29l67 10c-7,50 -26,89 -56,117 -30,29 -68,43 -112,43 -55,0 -99,-20 -133,-59 -33,-39 -50,-95 -50,-168 0,-48 7,-89 22,-125 14,-35 36,-62 66,-79 29,-18 61,-27 96,-27 44,0 80,12 107,36 28,24 46,58 54,103l-66 11c-6,-30 -18,-52 -34,-67 -16,-15 -35,-22 -58,-22 -35,0 -63,13 -85,40 -21,27 -32,69 -32,128 0,59 10,101 31,128 21,27 48,40 82,40 27,0 49,-9 67,-27 18,-18 30,-45 34,-82zm126 161l0 -607 68 0 0 219c32,-41 72,-61 121,-61 30,0 55,6 77,19 22,13 38,31 48,53 9,23 14,56 14,99l0 278 -69 0 0 -278c0,-37 -7,-64 -22,-81 -15,-17 -35,-26 -62,-26 -21,0 -40,6 -57,17 -18,12 -31,27 -38,47 -8,19 -12,46 -12,81l0 240 -68 0zm709 -143l71 11c-11,44 -32,79 -62,104 -30,25 -69,37 -115,37 -59,0 -106,-20 -141,-59 -34,-40 -51,-95 -51,-166 0,-74 17,-131 52,-172 35,-41 80,-61 136,-61 54,0 98,20 132,60 34,40 51,96 51,168 0,5 0,11 0,20l-301 0c2,48 15,85 37,111 23,25 51,38 85,38 25,0 46,-7 64,-22 17,-14 32,-37 42,-69zm-224 -119l225 0c-3,-37 -12,-65 -26,-83 -22,-29 -50,-43 -85,-43 -31,0 -58,11 -79,34 -21,23 -33,54 -35,92zm381 -260l0 -85 69 0 0 85 -69 0zm0 522l0 -440 69 0 0 440 -69 0zm173 0l0 -440 62 0 0 63c30,-48 73,-72 128,-72 25,0 47,5 68,14 20,10 35,22 45,38 11,15 18,33 22,54 2,14 4,38 4,73l0 270 -69 0 0 -267c0,-31 -3,-53 -8,-68 -5,-15 -15,-27 -28,-36 -14,-9 -30,-14 -48,-14 -29,0 -54,10 -75,30 -21,21 -32,59 -32,115l0 240 -69 0zm710 -143l71 11c-12,44 -32,79 -62,104 -30,25 -69,37 -116,37 -59,0 -105,-20 -140,-59 -35,-40 -52,-95 -52,-166 0,-74 18,-131 53,-172 34,-41 80,-61 136,-61 53,0 97,20 132,60 34,40 51,96 51,168 0,5 0,11 -1,20l-301 0c3,48 15,85 38,111 22,25 51,38 84,38 25,0 47,-7 64,-22 18,-14 32,-37 43,-69zm-225 -119l225 0c-3,-37 -11,-65 -25,-83 -22,-29 -50,-43 -85,-43 -32,0 -58,11 -79,34 -22,23 -33,54 -36,92z"/>
   <path class="fil3" d="M1746 4406l0 -3254 1054 0c399,0 659,16 780,48 186,50 342,156 468,319 126,164 189,375 189,634 0,200 -37,368 -109,504 -72,137 -164,243 -275,321 -112,78 -225,129 -341,154 -156,31 -383,47 -680,47l-427 0 0 1227 -659 0zm659 -2704l0 927 358 0c259,0 430,-17 518,-51 87,-34 155,-87 204,-161 49,-73 74,-157 74,-254 0,-119 -34,-216 -103,-294 -70,-77 -157,-125 -264,-145 -78,-14 -235,-22 -471,-22l-316 0z"/>
  </g>
 </g>
</svg>
